HIERARCHY
ROOT Hips
{
	OFFSET 0.00000 0.00000 0.00000
	CHANNELS 6 Xposition Yposition Zposition Zrotation Yrotation Xrotation 
	JOINT LHipJoint
	{
		OFFSET 0 0 0
		CHANNELS 3 Zrotation Yrotation Xrotation
		JOINT LeftHip
		{
			OFFSET 1.52977 -1.71332 0.88991
			CHANNELS 3 Zrotation Yrotation Xrotation
			JOINT LeftKnee
			{
				OFFSET 2.23949 -6.15296 0.00000
				CHANNELS 3 Zrotation Yrotation Xrotation
				JOINT LeftAnkle
				{
					OFFSET 2.68396 -7.37412 0.00000
					CHANNELS 3 Zrotation Yrotation Xrotation
					JOINT LeftToe
					{
						OFFSET 0.20538 -0.56428 2.52710
						CHANNELS 3 Zrotation Yrotation Xrotation
						End Site
						{
							OFFSET 0.00000 -0.00000 1.29919
						}
					}
				}
			}
		}
	}
	JOINT RHipJoint
	{
		OFFSET 0 0 0
		CHANNELS 3 Zrotation Yrotation Xrotation
		JOINT RightHip
		{
			OFFSET -1.45689 -1.71333 0.88991
			CHANNELS 3 Zrotation Yrotation Xrotation
			JOINT RightKnee
			{
				OFFSET -2.36700 -6.50329 0.00000
				CHANNELS 3 Zrotation Yrotation Xrotation
				JOINT RightAnkle
				{
					OFFSET -2.69814 -7.41308 0.00000
					CHANNELS 3 Zrotation Yrotation Xrotation
					JOINT RightToe
					{
						OFFSET -0.18734 -0.51471 2.37479
						CHANNELS 3 Zrotation Yrotation Xrotation
						End Site
						{
							OFFSET -0.00000 -0.00000 1.22113
						}
					}
				}
			}
		}
	}
	JOINT lowerback
	{
		OFFSET 0 0 0
		CHANNELS 3 Zrotation Yrotation Xrotation
		JOINT Chest
		{
			OFFSET 0.04294 2.14638 -0.31163
			CHANNELS 3 Zrotation Yrotation Xrotation
			JOINT Chest2
			{
				OFFSET -0.00400 2.17216 0.01486
				CHANNELS 3 Zrotation Yrotation Xrotation
				JOINT lowerneck
				{
					OFFSET 0 0 0
					CHANNELS 3 Zrotation Yrotation Xrotation
					JOINT Neck
					{
						OFFSET 0.03869 1.76598 0.14916
						CHANNELS 3 Zrotation Yrotation Xrotation
						JOINT Head
						{
							OFFSET -0.00760 1.75513 -0.18948
							CHANNELS 3 Zrotation Yrotation Xrotation
							End Site
							{
								OFFSET -0.00601 1.82444 -0.08310
							}
						}
					}
				}
				JOINT LeftCollar
				{
					OFFSET 0 0 0
					CHANNELS 3 Zrotation Yrotation Xrotation
					JOINT LeftShoulder
					{
						OFFSET 3.73696 0.92058 0.01733
CHANNELS 3 Zrotation Xrotation Yrotation
						JOINT LeftElbow
						{
OFFSET 0 -5.227710 0.000000
CHANNELS 3 Zrotation Xrotation Yrotation
							JOINT LeftWrist
							{
OFFSET 0 -3.452510 0.000000
CHANNELS 3 Zrotation Xrotation Yrotation
								JOINT lhand
								{
									OFFSET 0 0 0
CHANNELS 3 Zrotation Xrotation Yrotation
									JOINT LFingers
									{
OFFSET 0 -0.552120 0.000000
CHANNELS 3 Zrotation Xrotation Yrotation
										End Site
										{
OFFSET 0 -0.445130 0.000000
										}
									}
								}
								JOINT LThumb
								{
OFFSET 0 0.000000 0.000000
CHANNELS 3 Zrotation Xrotation Yrotation
									End Site
									{
OFFSET 0 -0.451930 0.451930
									}
								}
							}
						}
					}
				}
				JOINT RightCollar
				{
					OFFSET 0 0 0
					CHANNELS 3 Zrotation Yrotation Xrotation
					JOINT RightShoulder
					{
						OFFSET -3.63819 0.83094 -0.13694
CHANNELS 3 Zrotation Xrotation Yrotation
						JOINT RightElbow
						{
OFFSET 0 -5.239800 -0.000000
CHANNELS 3 Zrotation Xrotation Yrotation
							JOINT RightWrist
							{
OFFSET 0 -3.480420 -0.000000
CHANNELS 3 Zrotation Xrotation Yrotation
								JOINT rhand
								{
									OFFSET 0 0 0
CHANNELS 3 Zrotation Xrotation Yrotation
									JOINT RFingers
									{
OFFSET 0 -0.618710 0.000000
CHANNELS 3 Zrotation Xrotation Yrotation
										End Site
										{
OFFSET 0 -0.498820 0.000000
										}
									}
								}
								JOINT RThumb
								{
OFFSET 0 0.000000 0.000000
CHANNELS 3 Zrotation Xrotation Yrotation
									End Site
									{
OFFSET 0 -0.506440 0.506440
									}
								}
							}
						}
					}
				}
			}
		}
	}
}
MOTION
Frames: 11
Frame Time: 0.008333333333333333
-38.571600 16.949700 -5.152600 -132.861000 84.844000 -135.370000 0.000000 0.000000 0.000000 -16.631600 4.247200 -2.047000 1.444500 7.597800 21.499000 1.184500 -2.845100 -19.825600 0.016600 -0.831800 -2.286100 0.000000 0.000000 0.000000 24.641300 5.658200 -7.281100 -3.623100 -11.641300 34.474400 -2.079100 -4.917300 -29.347600 -0.215500 -2.988700 8.247300 3.613600 -0.901300 0.630100 0.087000 -1.197300 4.049400 -1.962700 -0.449500 3.746700 0.741400 -1.585800 -7.968900 2.836100 -2.505200 10.724800 0.598000 -1.005200 4.549600 -0.000000 0.000000 0.000000 1.268200 -0.726900 -22.247700 12.271700 -20.210800 2.195200 21.228400 -7.894000 -22.360800 0.000000 0.000000 0.000000 -7.125000 0.000000 0.000000 -8.066400 53.612800 1.717100 -0.000000 0.000000 0.000000 0.557800 1.131800 23.265400 -14.426200 -23.340700 -2.994900 -19.315500 6.574500 10.393700 0.000000 0.000000 0.000000 7.125000 0.000000 -0.000000 6.842400 40.883900 0.698200
-38.572029 16.949156 -5.155559 -132.316154 84.872673 -134.837855 0.000000 0.000000 0.000000 -16.626215 4.299203 -2.046166 1.446197 7.602108 21.512024 1.181280 -2.824767 -19.801662 0.018074 -0.867010 -2.383057 0.000000 0.000000 0.000000 24.614702 5.560620 -7.317859 -3.624756 -11.643642 34.482697 -2.076410 -4.792081 -29.267601 -0.214300 -2.980271 8.223785 3.556935 -0.886859 0.503350 0.128751 -1.183841 4.142316 -1.890560 -0.440163 3.917749 0.686508 -1.570259 -7.964130 2.830764 -2.475559 10.629740 0.607377 -0.995461 4.519774 0.000000 0.000000 0.000000 1.204421 -0.855443 -22.246529 12.265520 -20.201616 2.193111 21.291209 -7.834613 -22.380942 0.000000 0.000000 0.000000 -7.125000 0.000000 0.000000 -8.009661 53.645619 1.711287 0.000000 0.000000 0.000000 0.481806 1.015940 23.204627 -14.420611 -23.332786 -2.992690 -19.339491 6.603256 10.350306 0.000000 0.000000 0.000000 7.125000 0.000000 0.000000 6.814353 40.840591 0.702471
-38.569282 16.948771 -5.158490 -132.111644 84.895216 -134.651952 0.000000 0.000000 0.000000 -16.637156 4.349526 -2.014231 1.443495 7.595416 21.491904 1.172374 -2.777755 -19.733503 0.023507 -0.988813 -2.718004 0.000000 0.000000 0.000000 24.598936 5.554323 -7.282315 -3.624026 -11.642553 34.479043 -2.076568 -4.777561 -29.261692 -0.212797 -2.969735 8.194409 3.577778 -0.883450 0.520333 0.095546 -1.178148 4.119397 -1.935838 -0.437251 3.883595 0.727840 -1.570253 -7.941669 2.798303 -2.476793 10.659045 0.590720 -0.995784 4.524120 0.000000 0.000000 0.000000 1.257714 -0.802287 -22.221209 12.244131 -20.169747 2.185757 21.238401 -7.959066 -22.133774 0.000000 0.000000 0.000000 -7.125000 0.000000 0.000000 -7.973733 53.380451 1.651824 0.000000 0.000000 0.000000 0.517013 1.108817 23.157314 -14.452838 -23.378419 -3.005466 -19.650259 6.496181 9.849217 0.000000 0.000000 0.000000 7.125000 0.000000 0.000000 6.462706 40.342577 0.745407
-38.566780 16.948456 -5.161564 -131.788710 84.913007 -134.341017 0.000000 0.000000 0.000000 -16.634890 4.415627 -1.989219 1.439905 7.586277 21.464232 1.164080 -2.750330 -19.665922 0.028269 -1.084582 -2.981475 0.000000 0.000000 0.000000 24.587193 5.526535 -7.264216 -3.622139 -11.639880 34.469693 -2.073836 -4.747876 -29.229186 -0.210523 -2.954091 8.150851 3.595996 -0.879651 0.508470 0.076637 -1.173536 4.112744 -1.965608 -0.434195 3.883008 0.754547 -1.567077 -7.933949 2.765548 -2.472390 10.685693 0.576570 -0.994095 4.530235 0.000000 0.000000 0.000000 1.288749 -0.788455 -22.118708 12.193769 -20.094575 2.168393 21.114006 -8.194537 -21.596891 0.000000 0.000000 0.000000 -7.125000 0.000000 0.000000 -7.909231 52.802662 1.526211 0.000000 0.000000 0.000000 0.527615 1.150846 23.128760 -14.469268 -23.401570 -3.011959 -20.031602 6.362187 9.252805 0.000000 0.000000 0.000000 7.125000 0.000000 0.000000 6.041857 39.747033 0.785054
-38.564351 16.948300 -5.164652 -131.438893 84.926985 -133.996603 0.000000 0.000000 0.000000 -16.626173 4.481704 -1.980979 1.438171 7.582013 21.451568 1.156264 -2.736625 -19.600239 0.033330 -1.177829 -3.238190 0.000000 0.000000 0.000000 24.580635 5.506554 -7.252684 -3.620093 -11.636919 34.459438 -2.070729 -4.722295 -29.196651 -0.208880 -2.942463 8.118613 3.616595 -0.877222 0.487051 0.060651 -1.171355 4.107388 -1.993902 -0.432239 3.889142 0.766610 -1.560454 -7.934547 2.751248 -2.463686 10.713613 0.570710 -0.989593 4.538479 0.000000 0.000000 0.000000 1.315004 -0.788377 -21.991367 12.134875 -20.006591 2.148214 20.967060 -8.469522 -20.962465 0.000000 0.000000 0.000000 -7.125000 0.000000 0.000000 -7.840242 52.120015 1.381325 0.000000 0.000000 0.000000 0.530711 1.183507 23.131713 -14.490289 -23.431229 -3.020352 -20.363806 6.234234 8.746685 0.000000 0.000000 0.000000 7.125000 0.000000 0.000000 5.683519 39.239379 0.809598
-38.562896 16.948300 -5.167467 -130.961270 84.939083 -133.512229 0.000000 0.000000 0.000000 -16.607053 4.542209 -2.000714 1.438963 7.583958 21.457387 1.149202 -2.727095 -19.539892 0.038621 -1.268433 -3.487569 0.000000 0.000000 0.000000 24.585801 5.506116 -7.253608 -3.617633 -11.633429 34.447236 -2.066615 -4.702729 -29.160575 -0.207841 -2.935101 8.098149 3.631522 -0.873970 0.444847 0.056392 -1.169187 4.112821 -2.007491 -0.429960 3.918617 0.754075 -1.548105 -7.945944 2.759611 -2.447115 10.729552 0.576214 -0.981049 4.545354 0.000000 0.000000 0.000000 1.324302 -0.812056 -21.908414 12.102477 -19.958066 2.137111 20.893126 -8.619867 -20.598973 0.000000 0.000000 0.000000 -7.125000 0.000000 0.000000 -7.793425 51.730677 1.298341 0.000000 0.000000 0.000000 0.513197 1.184327 23.173847 -14.513369 -23.463851 -3.029510 -20.544379 6.146842 8.480722 0.000000 0.000000 0.000000 7.125000 0.000000 0.000000 5.492469 38.971904 0.818548
-38.562731 16.948444 -5.169666 -130.353023 84.944344 -132.890538 0.000000 0.000000 0.000000 -16.574184 4.585260 -2.039995 1.442089 7.591745 21.480735 1.142183 -2.708023 -19.482050 0.044499 -1.361295 -3.743511 0.000000 0.000000 0.000000 24.611009 5.531215 -7.257179 -3.614685 -11.629236 34.432656 -2.062929 -4.696098 -29.133900 -0.207744 -2.934679 8.097007 3.639955 -0.869485 0.390320 0.065304 -1.166364 4.127173 -2.003901 -0.427334 3.964680 0.727408 -1.533456 -7.950959 2.777977 -2.426238 10.723665 0.587542 -0.970950 4.544708 0.000000 0.000000 0.000000 1.318798 -0.854711 -21.873493 12.094335 -19.945981 2.134341 20.876824 -8.671549 -20.472129 0.000000 0.000000 0.000000 -7.125000 0.000000 0.000000 -7.768453 51.596432 1.268461 0.000000 0.000000 0.000000 0.479455 1.166573 23.239638 -14.541397 -23.503339 -3.040699 -20.551936 6.107513 8.472981 0.000000 0.000000 0.000000 7.125000 0.000000 0.000000 5.484881 38.964268 0.818482
-38.563507 16.948499 -5.171711 -129.706603 84.945313 -132.235619 0.000000 0.000000 0.000000 -16.537935 4.610466 -2.078619 1.446322 7.602356 21.512669 1.135064 -2.671620 -19.426437 0.051033 -1.457166 -4.007784 0.000000 0.000000 0.000000 24.644769 5.560728 -7.255946 -3.611485 -11.624578 34.416624 -2.059994 -4.694237 -29.114029 -0.208007 -2.936147 8.100932 3.649353 -0.865978 0.355251 0.076750 -1.163776 4.136118 -1.997977 -0.425285 3.994148 0.699509 -1.519961 -7.937871 2.798639 -2.406336 10.705082 0.599832 -0.961572 4.537143 0.000000 0.000000 0.000000 1.310967 -0.886156 -21.890139 12.113372 -19.974458 2.140890 20.923063 -8.627226 -20.580734 0.000000 0.000000 0.000000 -7.125000 0.000000 0.000000 -7.757754 51.716879 1.289700 0.000000 0.000000 0.000000 0.445139 1.159938 23.311437 -14.572972 -23.547942 -3.053269 -20.541400 6.064730 8.493612 0.000000 0.000000 0.000000 7.125000 0.000000 0.000000 5.496701 38.985311 0.817400
-38.564881 16.948400 -5.173813 -129.105471 84.949282 -131.639957 0.000000 0.000000 0.000000 -16.511038 4.620333 -2.094443 1.450178 7.612137 21.542054 1.128418 -2.620274 -19.377422 0.056991 -1.540212 -4.236639 0.000000 0.000000 0.000000 24.671946 5.580083 -7.245782 -3.608887 -11.620896 34.403708 -2.059068 -4.679380 -29.100487 -0.209439 -2.946348 8.129556 3.657691 -0.862238 0.354048 0.084443 -1.159215 4.137910 -1.994545 -0.422687 3.997011 0.685969 -1.513673 -7.917446 2.802777 -2.395853 10.686162 0.604123 -0.957196 4.528018 0.000000 0.000000 0.000000 1.305431 -0.912194 -21.875415 12.116333 -19.978854 2.141850 20.912784 -8.677103 -20.491627 0.000000 0.000000 0.000000 -7.125000 0.000000 0.000000 -7.739006 51.622896 1.268631 0.000000 0.000000 0.000000 0.416240 1.170368 23.373519 -14.606414 -23.595001 -3.066671 -20.521308 6.015155 8.521540 0.000000 0.000000 0.000000 7.125000 0.000000 0.000000 5.517647 39.013373 0.816703
-38.566746 16.948169 -5.176146 -128.654831 84.963481 -131.203367 0.000000 0.000000 0.000000 -16.505452 4.624391 -2.089302 1.452723 7.618523 21.561268 1.121378 -2.563818 -19.326347 0.062784 -1.616780 -4.447727 0.000000 0.000000 0.000000 24.676917 5.582762 -7.235431 -3.607746 -11.619361 34.398330 -2.058762 -4.651605 -29.084781 -0.211354 -2.959860 8.167134 3.656586 -0.858962 0.376532 0.084486 -1.153740 4.138147 -1.993315 -0.420224 3.984858 0.683253 -1.510200 -7.906607 2.797548 -2.389877 10.672008 0.603462 -0.955092 4.521761 0.000000 0.000000 0.000000 1.303523 -0.931843 -21.909393 12.142591 -20.018121 2.150807 20.943937 -8.649732 -20.600874 0.000000 0.000000 0.000000 -7.125000 0.000000 0.000000 -7.743577 51.741514 1.291996 0.000000 0.000000 0.000000 0.393172 1.184313 23.428506 -14.641925 -23.644931 -3.080890 -20.503494 5.965992 8.553826 0.000000 0.000000 0.000000 7.125000 0.000000 0.000000 5.537206 39.046188 0.815216
-38.569117 16.947637 -5.178807 -128.198731 84.994973 -130.765898 0.000000 0.000000 0.000000 -16.517236 4.637049 -2.075594 1.453545 7.620590 21.567471 1.113696 -2.494788 -19.272055 0.069195 -1.697433 -4.670186 0.000000 0.000000 0.000000 24.662920 5.580817 -7.231523 -3.608871 -11.620935 34.403885 -2.056765 -4.617588 -29.055214 -0.212200 -2.965918 8.183881 3.651457 -0.851581 0.414747 0.075871 -1.141749 4.135183 -1.998422 -0.414706 3.960725 0.689993 -1.508083 -7.904887 2.787797 -2.386720 10.671729 0.599567 -0.953919 4.521156 0.000000 0.000000 0.000000 1.310674 -0.945195 -21.933263 12.163477 -20.049365 2.158019 20.927641 -8.706015 -20.572664 0.000000 0.000000 0.000000 -7.125000 0.000000 0.000000 -7.750515 51.709425 1.287060 0.000000 0.000000 0.000000 0.378452 1.198200 23.479941 -14.673425 -23.689145 -3.093519 -20.497037 5.918523 8.570333 0.000000 0.000000 0.000000 7.125000 0.000000 0.000000 5.544908 39.063179 0.813982
